<?xml version="1.0" encoding="utf-8"?>
<!-- Generator: Adobe Illustrator 28.0.0, SVG Export Plug-In . SVG Version: 6.00 Build 0)  -->
<svg version="1.1" xmlns="http://www.w3.org/2000/svg" xmlns:xlink="http://www.w3.org/1999/xlink" x="0px" y="0px"
	 viewBox="0 0 992.13 992.13" style="enable-background:new 0 0 992.13 992.13;" xml:space="preserve">
<style type="text/css">
	.st0{fill:#FFFFFF;}
</style>
<g id="Livello_2">
	<rect width="992.13" height="992.13"/>
</g>
<g id="Livello_1">
	<g>
		<path class="st0" d="M204.59,697.09c-23.16,0-42.01-18.84-42.01-42.01V337.16c0-23.16,18.85-42.01,42.01-42.01h4.55v401.95H204.59
			z"/>
		<path class="st0" d="M167.13,337.16v317.93c0,20.69,16.77,37.46,37.46,37.46V299.7C183.9,299.7,167.13,316.47,167.13,337.16z"/>
		<path class="st0" d="M420.11,698.85c-9.9,0-18.4-5.68-22.2-14.82L249.34,344.38c-4.77-10.91-3.73-23.36,2.79-33.33
			c6.52-9.96,17.51-15.91,29.42-15.91h3.01l135.33,317.66l123.64-317.66h3.11c12.76,0,24.61,6.33,31.69,16.95
			c7.09,10.61,8.39,23.98,3.5,35.76L442.31,684.03C438.52,693.17,430.01,698.85,420.11,698.85
			C420.11,698.85,420.11,698.85,420.11,698.85z"/>
		<path class="st0" d="M546.63,299.7L420.07,624.87L281.54,299.7c-22.06,0-36.88,22.64-28.03,42.86L402.1,682.25v0
			c6.63,16.05,29.35,16.07,36,0.03l139.52-336.17C586.79,324.02,570.56,299.7,546.63,299.7z"/>
		<path class="st0" d="M621.34,697.09l-1.57-401.95h4.57c23.15,0,42.06,18.84,42.15,41.99l1.25,317.93
			c0.04,11.21-4.29,21.76-12.2,29.71c-7.91,7.94-18.45,12.32-29.66,12.32H621.34z"/>
		<path class="st0" d="M624.33,299.7l1.54,392.84c20.66,0,37.39-16.79,37.31-37.46l-1.25-317.93
			C661.85,316.45,645.04,299.7,624.33,299.7z"/>
		<path class="st0" d="M706.48,500.83c-6.74-8.76-9.54-19.59-7.88-30.52c1.66-10.92,7.55-20.44,16.59-26.8l63.34-44.56l-63.17-45.04
			c-8.9-6.35-14.83-16.2-16.25-27.04c-1.43-10.84,1.74-21.89,8.7-30.33l2.68-3.25l112.85,79.37c8.62,5.96,13.78,15.81,13.78,26.32
			c0,10.52-5.16,20.36-13.81,26.34l-114.17,78.94L706.48,500.83z"/>
		<path class="st0" d="M820.7,376.37l-109.4-76.94v0c-12.91,15.66-9.84,38.99,6.69,50.77l68.41,48.77l-68.59,48.26
			c-16.57,11.66-20.08,34.77-7.72,50.82l110.62-76.48C836.5,410.64,836.5,387.29,820.7,376.37z"/>
	</g>
</g>
</svg>
