<?xml version="1.0" encoding="utf-8"?>
<!-- Generator: Adobe Illustrator 28.0.0, SVG Export Plug-In . SVG Version: 6.00 Build 0)  -->
<svg version="1.1" xmlns="http://www.w3.org/2000/svg" xmlns:xlink="http://www.w3.org/1999/xlink" x="0px" y="0px"
	 viewBox="0 0 992.13 992.13" style="enable-background:new 0 0 992.13 992.13;" xml:space="preserve">
<style type="text/css">
	.st0{display:none;}
	.st1{display:inline;}
	.st2{font-family:'Outfit-SemiBold';}
	.st3{font-size:56.5761px;}
	.st4{font-family:'Outfit-Light';}
	.st5{font-size:36px;}
</style>
<g id="Livello_2" class="st0">
	<rect class="st1" width="992.13" height="992.13"/>
</g>
<g id="Livello_1">
	<g>
		<g>
			<path d="M182.39,569.83c-8.5,0-15.41-6.91-15.41-15.41V437.75c0-8.5,6.92-15.41,15.41-15.41h1.67v147.49H182.39z"/>
			<path d="M168.64,437.75v116.66c0,7.59,6.15,13.74,13.74,13.74V424.01C174.79,424.01,168.64,430.16,168.64,437.75z"/>
			<path d="M261.47,570.47c-3.63,0-6.75-2.08-8.15-5.44l-54.52-124.63c-1.75-4-1.37-8.57,1.02-12.23c2.39-3.66,6.43-5.84,10.79-5.84
				h1.1l49.66,116.56l45.37-116.56h1.14c4.68,0,9.03,2.32,11.63,6.22c2.6,3.89,3.08,8.8,1.29,13.12l-51.19,123.35
				C268.22,568.39,265.1,570.47,261.47,570.47C261.47,570.47,261.47,570.47,261.47,570.47z"/>
			<path d="M307.9,424.01l-46.44,119.32l-50.83-119.32c-8.1,0-13.53,8.31-10.29,15.73l54.52,124.65l0,0
				c2.43,5.89,10.77,5.9,13.21,0.01l51.19-123.35C322.63,432.93,316.67,424.01,307.9,424.01z"/>
			<path d="M335.31,569.83l-0.58-147.49h1.68c8.5,0,15.43,6.91,15.47,15.41l0.46,116.66c0.02,4.11-1.57,7.99-4.48,10.9
				c-2.9,2.92-6.77,4.52-10.88,4.52H335.31z"/>
			<path d="M336.41,424.01l0.56,144.15c7.58,0,13.72-6.16,13.69-13.74l-0.46-116.66C350.17,430.15,344.01,424.01,336.41,424.01z"/>
			<path d="M366.55,497.81c-2.47-3.21-3.5-7.19-2.89-11.2c0.61-4.01,2.77-7.5,6.09-9.83l23.24-16.35L369.8,443.9
				c-3.27-2.33-5.44-5.95-5.96-9.92c-0.52-3.98,0.64-8.03,3.19-11.13l0.98-1.19l41.41,29.12c3.16,2.19,5.06,5.8,5.06,9.66
				s-1.89,7.47-5.07,9.67l-41.9,28.97L366.55,497.81z"/>
			<path d="M408.46,452.14l-40.14-28.23v0c-4.74,5.75-3.61,14.31,2.45,18.63l25.1,17.9l-25.17,17.71
				c-6.08,4.28-7.37,12.76-2.83,18.65l40.59-28.06C414.26,464.72,414.26,456.15,408.46,452.14z"/>
		</g>
		<g>
			<text transform="matrix(1 0 0 1 468.39 487.9955)" class="st2 st3">Mattia Paiano</text>
			<text transform="matrix(1 0 0 1 468.3904 541.1453)" class="st4 st5">Web Developer</text>
		</g>
	</g>
</g>
</svg>
