<?xml version="1.0" encoding="utf-8"?>
<!-- Generator: Adobe Illustrator 28.0.0, SVG Export Plug-In . SVG Version: 6.00 Build 0)  -->
<svg version="1.1" xmlns="http://www.w3.org/2000/svg" xmlns:xlink="http://www.w3.org/1999/xlink" x="0px" y="0px"
	 viewBox="0 0 85.04 85.04" style="enable-background:new 0 0 85.04 85.04;" xml:space="preserve">
<style type="text/css">
	.st0{fill:none;stroke:#999DCE;stroke-width:2;stroke-miterlimit:10;}
	.st1{fill:#999DCE;}
	.st2{display:none;}
	.st3{display:inline;fill:#999DCE;}
</style>
<g id="Livello_1">
	<g>
		<path class="st0" d="M-101.3,37.45c16.03,0.11,23.89,0.14,31.14,0.11c1.98-0.01,6.92-0.11,11.38-0.11
			c1.54,0.18,2.67,3.34,4.26,3.43c4.19,0.25,6.62-12.7,10.1-12.53c3.54,0.18,4.97,13.77,7.48,13.64c2.39-0.13,2.15-12.58,7.48-13.94
			c1.42-0.36,2.69,0.21,3.13,0.4c5.51,2.47,4.55,12.99,6.26,13.13c0.73,0.06,1.9-1.78,3.82-10.3"/>
		<path class="st0" d="M-36.98,42.5c-1.5,0-2.39-2.76-3.52-6.25c-1.06-3.26-2.37-7.31-3.94-7.39c-1.29-0.1-2.8,2.92-4.09,5.56
			c-1.71,3.5-3.48,7.12-6.02,6.97c-1.03-0.06-1.8-1.01-2.55-1.92c-0.58-0.71-1.19-1.45-1.74-1.52c-2.86,0-5.99,0.04-8.35,0.08
			c-1.25,0.02-2.29,0.03-2.97,0.03c-7.41,0.04-15.6,0-31.15-0.11l0.01-1c15.54,0.1,23.73,0.14,31.13,0.11
			c0.68,0,1.72-0.02,2.96-0.03c2.37-0.03,5.5-0.07,8.42-0.07c1.01,0.12,1.74,1.01,2.45,1.88c0.61,0.75,1.24,1.52,1.84,1.56
			c1.89,0.09,3.56-3.35,5.06-6.41c1.64-3.34,3.06-6.2,5.04-6.12c2.26,0.11,3.57,4.17,4.84,8.08c0.72,2.23,1.83,5.58,2.58,5.56
			c0.61-0.03,1.24-2.52,1.71-4.34c0.99-3.88,2.23-8.71,5.67-9.59c1.59-0.41,3,0.22,3.46,0.43c3.73,1.68,4.67,6.73,5.29,10.07
			c0.22,1.2,0.53,2.84,0.83,3.02c0.14-0.06,1.2-0.79,3.26-9.92l0.98,0.22c-2.14,9.53-3.34,10.76-4.34,10.69
			c-1.01-0.08-1.27-1.49-1.71-3.83c-0.62-3.33-1.47-7.88-4.72-9.35c-0.42-0.19-1.55-0.69-2.8-0.38c-2.86,0.73-4.02,5.24-4.95,8.87
			c-0.75,2.91-1.29,5.02-2.62,5.09C-36.94,42.5-36.96,42.5-36.98,42.5z"/>
	</g>
	<path class="st1" d="M83.49,42.1c-0.59,0.14-0.93,0.47-1.17,0.71c-0.18,0.18-0.27,0.25-0.37,0.27c-0.29,0.02-0.66-0.51-0.97-0.94
		c-0.45-0.64-0.92-1.27-1.64-1.28c-1.09,0.02-1.67,1.5-2.23,2.94c-0.17,0.44-0.41,1.05-0.59,1.36c-0.18-0.35-0.47-1.1-0.83-2.05
		c-0.25-0.66-0.56-1.47-0.95-2.46c-0.27-0.68-0.62-1.11-1.08-1.31c-0.42-0.19-0.89-0.16-1.31,0.08c-0.62,0.35-1.13,1.16-1.23,1.97
		c-0.07,0.54-0.05,1.08-0.02,1.6c0.02,0.55,0.04,1.06-0.03,1.56c-0.13,0.83-0.77,1.69-1.5,1.69c-0.73-0.03-1.27-0.88-1.37-1.68
		c-0.06-0.52-0.01-1.05,0.04-1.61c0.04-0.45,0.08-0.92,0.07-1.39c-0.04-1.1-0.54-2.52-1.84-2.92c-1.39-0.42-2.79,0.68-3.22,1.98
		c-0.35,1.06-0.23,2.15-0.11,3.2l0.04,0.38c0.17,1.58,0.07,2.44-0.36,2.89c-0.48,0.51-1.61,0.81-2.3,0.41
		c-0.68-0.39-0.71-1.44-0.71-3.4c0-2.03,0.01-4.8-1.1-8.06c-0.8-2.35-1.69-3.52-2.73-3.59c-1.21-0.09-2.24,0.91-2.6,1.94
		c-0.35,1.01-0.23,2.07-0.13,3l1.03,9.45c0.13,1.2,0.26,2.44-0.07,3.57c-0.29,0.97-1.07,2-2.17,2.12c-1.19,0.14-2.26-0.86-2.7-1.92
		c-0.5-1.21-0.44-2.65-0.39-3.91l0.49-11.36c0.03-0.79,0.08-1.78-0.39-2.63c-0.29-0.53-0.83-0.96-1.42-1.11
		c-0.48-0.13-0.95-0.07-1.34,0.16c-0.95,0.57-0.98,1.82-1,2.42l-0.15,5.11c-0.03,1.01-0.07,2.27-0.68,3.16
		c-0.31,0.45-0.86,0.78-1.41,0.85c-0.16,0.02-0.32,0.02-0.47-0.02c-0.09-0.02-0.18-0.05-0.27-0.1c-0.07-0.04-0.14-0.12-0.22-0.13
		c-0.02,0-0.04,0-0.06,0c-0.23,0-0.47,0-0.7,0c-0.24,0-0.49,0-0.73,0c-0.32,0-0.63,0-0.95,0c-0.38,0-0.76,0-1.14,0
		c-0.44,0-0.88,0-1.32,0c-0.49,0-0.98,0-1.48,0c-0.54,0-1.08,0-1.62,0c-0.58,0-1.16,0-1.74-0.01c-0.61,0-1.23,0-1.84-0.01
		c-0.64,0-1.29,0-1.93-0.01c-0.66,0-1.33,0-1.99-0.01c-0.68,0-1.36,0-2.04-0.01c-0.69,0-1.38,0-2.07-0.01c-0.7,0-1.39,0-2.09-0.01
		c-0.69,0-1.39,0-2.08-0.01c-0.69,0-1.37,0-2.06-0.01c-0.67,0-1.34,0-2.01-0.01c-0.65,0-1.3,0-1.95-0.01c-0.62,0-1.25,0-1.87-0.01
		c-0.59,0-1.18,0-1.78-0.01c-0.55,0-1.11,0-1.66-0.01c-0.51,0-1.02,0-1.53,0c-0.46,0-0.92,0-1.38,0c-0.4,0-0.8,0-1.21,0
		c-0.34,0-0.68,0-1.02,0c-0.27,0-0.54,0-0.81,0c-0.19,0-0.39,0-0.58,0c-0.11,0-0.23,0-0.34,0c-0.03,0-0.06,0-0.09,0
		c0,0,0,1.13,0,1.13c0.05,0,0.09,0,0.14,0c0.14,0,0.28,0,0.41,0c0.22,0,0.44,0,0.66,0c0.3,0,0.6,0,0.9-0.01c0.37,0,0.74,0,1.11-0.01
		c0.43,0,0.87-0.01,1.3-0.01C5.01,44,5.5,44,5.99,43.99c0.54,0,1.08-0.01,1.62-0.01c0.58,0,1.17-0.01,1.75-0.01
		c0.62,0,1.24-0.01,1.86-0.01c0.65,0,1.3-0.01,1.96-0.01c0.68,0,1.35-0.01,2.03-0.01c0.69,0,1.39-0.01,2.08-0.01
		c0.7,0,1.41-0.01,2.11-0.01c0.71,0,1.42-0.01,2.12-0.01c0.71,0,1.41-0.01,2.12-0.01c0.7,0,1.39-0.01,2.09-0.01
		c0.68,0,1.36-0.01,2.04-0.01c0.66,0,1.32-0.01,1.97-0.01c0.63,0,1.26-0.01,1.89-0.01c0.59,0,1.19-0.01,1.78-0.01
		c0.55,0,1.1-0.01,1.65-0.01c0.5,0,1-0.01,1.51-0.01c0.45,0,0.89-0.01,1.34-0.01c0.38,0,0.77,0,1.15-0.01c0.32,0,0.63,0,0.95-0.01
		c0.24,0,0.48,0,0.72,0c0.21,0,0.42,0,0.63,0c0.02,0,0.03,0,0.05,0.01c0.01,0,0.02,0.01,0.03,0.02c0.5,0.39,1.07,0.55,1.7,0.48
		c0.83-0.1,1.65-0.59,2.12-1.28c0.78-1.13,0.82-2.55,0.86-3.69l0.15-5.11c0.02-0.65,0.09-1.34,0.52-1.59
		c0.19-0.12,0.4-0.09,0.55-0.05c0.32,0.09,0.63,0.33,0.79,0.62c0.33,0.61,0.3,1.41,0.27,2.11l-0.49,11.36
		c-0.06,1.37-0.12,2.92,0.46,4.33c0.54,1.31,1.87,2.55,3.42,2.55c0.11,0,0.22-0.01,0.33-0.02c1.57-0.17,2.65-1.55,3.03-2.84
		c0.39-1.33,0.24-2.72,0.11-3.96l-1.03-9.45c-0.09-0.83-0.19-1.77,0.08-2.57c0.23-0.65,0.83-1.33,1.57-1.27
		c0.2,0.01,0.94,0.27,1.84,2.92c1.05,3.1,1.05,5.78,1.05,7.74c0,2.07-0.01,3.57,1.21,4.27c1.14,0.66,2.79,0.22,3.55-0.59
		c0.65-0.69,0.83-1.76,0.62-3.68l-0.04-0.38c-0.11-0.99-0.22-1.92,0.06-2.77c0.28-0.83,1.17-1.58,1.97-1.34
		c0.74,0.23,1.1,1.16,1.13,1.99c0.01,0.41-0.02,0.83-0.07,1.27c-0.05,0.59-0.11,1.2-0.03,1.83c0.15,1.21,1.02,2.51,2.33,2.56
		c1.36,0.04,2.34-1.27,2.54-2.54c0.09-0.6,0.07-1.19,0.05-1.76c-0.02-0.5-0.04-0.98,0.02-1.44c0.06-0.49,0.38-1.03,0.72-1.22
		c0.19-0.1,0.31-0.07,0.4-0.03c0.14,0.06,0.34,0.24,0.55,0.76c0.39,0.99,0.7,1.79,0.95,2.45c0.88,2.31,1.07,2.79,1.68,2.85
		c0.78,0.07,1.13-0.86,1.63-2.15c0.29-0.75,0.9-2.3,1.31-2.3c0.2,0,0.56,0.51,0.8,0.85c0.46,0.65,1.03,1.46,1.9,1.36
		c0.46-0.05,0.74-0.33,0.97-0.55c0.2-0.2,0.38-0.37,0.7-0.45c0.38-0.09,0.83-0.01,1.32,0.24l0.47-0.89
		C84.8,42.06,84.12,41.95,83.49,42.1z"/>
</g>
<g id="Livello_2" class="st2">
	<rect x="42.52" y="36.93" class="st3" width="42.52" height="5.07"/>
</g>
</svg>
